<svg width="200" height="200" viewBox="0 0 200 200" fill="none" xmlns="http://www.w3.org/2000/svg">
<rect width="200" height="200" rx="8" fill="black"/>
<path d="M176.8 37.16C177.707 38.2933 177.48 39.54 176.12 40.9L173.4 42.94C172.267 42.94 171.473 43.28 171.02 43.96C170.793 44.4133 170.113 44.8667 168.98 45.32C167.393 46 166.147 46.68 165.24 47.36C164.56 47.8133 162.633 48.2667 159.46 48.72C152.207 47.5867 144.16 47.1333 135.32 47.36C126.48 47.36 119.113 47.5867 113.22 48.04C114.58 58.24 115.373 69.0067 115.6 80.34C115.827 91.6733 115.713 103.233 115.26 115.02C115.033 126.58 114.58 138.027 113.9 149.36C113.447 160.693 113.22 171.46 113.22 181.66V187.44C112.087 183.587 111.18 179.393 110.5 174.86C110.047 173.273 109.707 171.8 109.48 170.44C109.253 169.307 108.913 167.947 108.46 166.36C105.287 148 103.7 128.62 103.7 108.22C103.7 87.82 104.947 67.9867 107.44 48.72C94.52 50.5333 82.0533 52.46 70.04 54.5C58.0267 56.54 46.1267 59.4867 34.34 63.34C32.98 63.7933 31.62 64.1333 30.26 64.36C29.1267 64.5867 27.88 64.9267 26.52 65.38C25.3867 64.2467 24.3667 63.4533 23.46 63C22.5533 62.5467 21.9867 61.4133 21.76 59.6C21.3067 57.1067 21.9867 55.18 23.8 53.82C25.6133 52.2333 27.4267 50.5333 29.24 48.72C29.92 48.4933 30.3733 47.9267 30.6 47.02C30.8267 46.1133 31.0533 45.2067 31.28 44.3C31.7333 43.3933 32.0733 42.6 32.3 41.92C32.5267 41.0133 32.98 40.4467 33.66 40.22C44.7667 36.3667 56.44 33.3067 68.68 31.04C80.92 28.7733 93.16 27.4133 105.4 26.96C117.867 26.5067 130.107 27.0733 142.12 28.66C154.36 30.2467 165.92 33.08 176.8 37.16Z" fill="#F0A500"/>
</svg>
