<svg width="33" height="22" viewBox="0 0 33 22" fill="none" xmlns="http://www.w3.org/2000/svg">
<path d="M9.85435 0.802078C10.7862 0.802078 11.6481 0.874995 12.4356 1.09083C13.1502 1.22214 13.8323 1.49162 14.4437 1.88416C15.0183 2.24437 15.4485 2.75041 15.7344 3.39937C16.0216 4.04833 16.1646 4.84312 16.1646 5.70791C16.1646 6.71854 15.9502 7.58333 15.4485 8.23229C15.0183 8.8827 14.3008 9.45875 13.4404 9.89187C14.6596 10.2535 15.5914 10.9025 16.1646 11.7673C16.7391 12.6335 17.0979 13.7156 17.0979 14.9421C17.0979 15.9527 16.8821 16.8175 16.5233 17.5394C16.1646 18.2612 15.5914 18.9102 14.9454 19.3433C14.2436 19.8076 13.4679 20.1489 12.6514 20.3525C11.791 20.5698 10.9306 20.7142 10.0702 20.7142H0.458313V0.802078H9.85435ZM9.27977 8.88125C10.0687 8.88125 10.7148 8.66541 11.2164 8.3052C11.7181 7.945 11.9339 7.29458 11.9339 6.50125C11.9339 6.06812 11.861 5.635 11.7181 5.3477C11.5752 5.05895 11.3594 4.84166 11.0735 4.62583C10.7862 4.48145 10.4989 4.33708 10.1402 4.26562C9.78144 4.1927 9.42415 4.1927 8.99248 4.1927H4.83331V8.8827H9.28123L9.27977 8.88125ZM9.4956 17.395C9.92581 17.395 10.356 17.3221 10.7148 17.2506C11.077 17.1817 11.4196 17.0339 11.7181 16.8175C12.0103 16.6064 12.2548 16.3361 12.4356 16.0242C12.5785 15.664 12.7229 15.2308 12.7229 14.7262C12.7229 13.7156 12.4356 12.9937 11.8625 12.4892C11.2879 12.056 10.4989 11.8402 9.56706 11.8402H4.83331V17.3965H9.4956V17.395ZM23.3381 17.3221C23.9112 17.8996 24.7716 18.1883 25.9194 18.1883C26.7083 18.1883 27.4258 17.9725 27.9989 17.6123C28.5735 17.1792 28.9323 16.746 29.0752 16.3129H32.5898C32.0152 18.044 31.1548 19.2704 30.0085 20.0637C28.8594 20.7856 27.4973 21.2187 25.8479 21.2187C24.7926 21.2219 23.7462 21.026 22.7635 20.6412C21.8793 20.3095 21.0908 19.7645 20.4681 19.0546C19.8021 18.3904 19.3098 17.5725 19.0346 16.6731C18.6758 15.7354 18.5314 14.7262 18.5314 13.5712C18.5314 12.4892 18.6758 11.48 19.0346 10.5408C19.3795 9.63679 19.8899 8.80495 20.5396 8.08791C21.1856 7.43895 21.9746 6.86291 22.835 6.50125C23.7927 6.11634 24.8158 5.92024 25.8479 5.92375C27.0671 5.92375 28.1433 6.14104 29.0752 6.64562C30.0085 7.1502 30.7246 7.7277 31.2991 8.59395C31.8853 9.42598 32.322 10.3537 32.5898 11.3356C32.7327 12.3448 32.8041 13.3554 32.7327 14.509H22.3333C22.3333 15.664 22.7635 16.746 23.3381 17.3235V17.3221ZM27.856 9.7475C27.3544 9.24291 26.5654 8.95416 25.6321 8.95416C24.9875 8.95416 24.4844 9.09854 24.0541 9.31437C23.6239 9.53166 23.3381 9.82041 23.0508 10.1092C22.7868 10.3881 22.6121 10.7395 22.5491 11.1183C22.4762 11.48 22.4048 11.7673 22.4048 12.056H28.8594C28.7164 10.974 28.3577 10.2535 27.856 9.7475V9.7475ZM21.5444 2.17291H29.5769V4.12125H21.5458V2.17291H21.5444Z" fill="white"/>
</svg>
