<svg width="35" height="35" viewBox="0 0 35 35" fill="none" xmlns="http://www.w3.org/2000/svg">
<path d="M17.5 2.91666C9.44273 2.91666 2.91669 9.4427 2.91669 17.5C2.91504 20.5614 3.87746 23.5457 5.66742 26.0293C7.45738 28.513 9.98399 30.3699 12.8888 31.3367C13.6179 31.4635 13.8906 31.026 13.8906 30.6425C13.8906 30.2969 13.8717 29.1492 13.8717 27.9271C10.2084 28.6023 9.26044 27.0346 8.96877 26.2135C8.80398 25.7935 8.09377 24.5 7.47398 24.1529C6.96356 23.8802 6.2344 23.205 7.45502 23.1875C8.60419 23.1685 9.42377 24.2448 9.69794 24.6823C11.0104 26.8873 13.1075 26.2675 13.9446 25.8854C14.0729 24.9375 14.455 24.3002 14.875 23.9356C11.6302 23.571 8.23961 22.3125 8.23961 16.7344C8.23961 15.1477 8.80398 13.8367 9.7344 12.8144C9.58857 12.4498 9.07815 10.955 9.88023 8.94978C9.88023 8.94978 11.1009 8.5677 13.8906 10.446C15.0778 10.1165 16.3044 9.9507 17.5365 9.95311C18.7761 9.95311 20.0157 10.1164 21.1823 10.4446C23.9707 8.54874 25.1927 8.95124 25.1927 8.95124C25.9948 10.9564 25.4844 12.4512 25.3386 12.8158C26.2675 13.8367 26.8334 15.1302 26.8334 16.7344C26.8334 22.3314 23.4252 23.571 20.1804 23.9356C20.7084 24.3906 21.1648 25.2656 21.1648 26.6335C21.1648 28.5833 21.1459 30.151 21.1459 30.6439C21.1459 31.026 21.42 31.481 22.1492 31.3352C25.044 30.3578 27.5595 28.4973 29.3416 26.0154C31.1236 23.5336 32.0825 20.5554 32.0834 17.5C32.0834 9.4427 25.5573 2.91666 17.5 2.91666Z" fill="#4A3933"/>
</svg>
