<svg width="30" height="30" viewBox="0 0 30 30" fill="none" xmlns="http://www.w3.org/2000/svg">
<path fill-rule="evenodd" clip-rule="evenodd" d="M26.25 7.44757C26.2612 8.20632 26.1662 9.15757 26.0825 9.85132C26.056 10.0805 26.0142 10.3077 25.9575 10.5313C27.0275 12.5126 27.5 14.8963 27.5 17.5001C27.5 20.5851 26.0163 23.1263 23.705 24.8588C21.415 26.5751 18.325 27.5001 15 27.5001C11.675 27.5001 8.585 26.5751 6.295 24.8588C3.98375 23.1263 2.5 20.5851 2.5 17.5001C2.5 14.8963 2.97125 12.5126 4.04375 10.5313C3.98707 10.3077 3.94531 10.0805 3.91875 9.85132C3.8325 9.15757 3.7375 8.20632 3.75 7.44757C3.7625 6.59382 3.875 5.74007 3.99875 4.89257C4.05625 4.50007 4.14625 4.13132 4.5725 3.89882C5.0075 3.66132 5.465 3.74882 5.91625 3.87757C7.43875 4.30882 8.86625 4.91507 10.2087 5.64007C11.625 5.21632 13.2225 5.00007 15 5.00007C16.7775 5.00007 18.375 5.21632 19.79 5.64132C21.1513 4.89708 22.591 4.30597 24.0825 3.87882C24.5338 3.75007 24.9925 3.66132 25.4263 3.89882C25.8512 4.13132 25.9425 4.50007 26.0013 4.89257C26.1238 5.74007 26.2375 6.59382 26.25 7.44757ZM25 17.5001C25 15.3913 24.515 12.5001 21.875 12.5001C20.685 12.5001 19.5588 12.8126 18.4338 13.1251C17.31 13.4376 16.1875 13.7501 15 13.7501C13.8125 13.7501 12.69 13.4376 11.5662 13.1251C10.4413 12.8126 9.31625 12.5001 8.125 12.5001C5.4925 12.5001 5 15.4001 5 17.5001C5 19.7051 6.03375 21.5388 7.795 22.8588C9.575 24.1951 12.1125 25.0001 15 25.0001C17.8875 25.0001 20.4237 24.1938 22.205 22.8588C23.9662 21.5376 25 19.7051 25 17.5001ZM12.5 18.1251C12.5 19.8501 11.66 21.2501 10.625 21.2501C9.59 21.2501 8.75 19.8501 8.75 18.1251C8.75 16.4001 9.59 15.0001 10.625 15.0001C11.66 15.0001 12.5 16.4001 12.5 18.1251ZM19.375 21.2501C20.41 21.2501 21.25 19.8501 21.25 18.1251C21.25 16.4001 20.41 15.0001 19.375 15.0001C18.34 15.0001 17.5 16.4001 17.5 18.1251C17.5 19.8501 18.34 21.2501 19.375 21.2501Z" fill="#4A3933"/>
</svg>
