<svg width="35" height="35" viewBox="0 0 35 35" fill="none" xmlns="http://www.w3.org/2000/svg">
<g clip-path="url(#clip0)">
<path d="M16.0519 -1.49047e-05C14.9042 0.0451934 13.8425 0.539568 12.8115 0.998943C11.9346 1.41379 11.0255 1.75666 10.0931 2.02415C9.16709 2.28082 8.1973 2.5404 7.44772 3.17332C7.12397 3.43582 6.92855 3.81353 6.67626 4.13873C6.22564 4.84748 6.02293 5.69478 6.0098 6.52748C6.0623 7.41707 6.3248 8.27748 6.55814 9.13207C7.0948 10.9725 7.73501 12.7823 8.30376 14.6139C8.83751 16.3071 9.32897 18.0323 10.1908 19.5956C10.4781 20.1702 10.7013 20.7739 10.9711 21.3544C11.0104 21.4521 11.0469 21.5848 11.1781 21.5716C11.3765 21.5541 11.5325 21.4039 11.7148 21.3325C12.9223 20.7287 14.2523 20.3962 15.5867 20.2402C16.6192 20.1323 17.6721 20.1264 18.6944 20.3189C19.7444 20.5566 20.7608 20.9402 21.7452 21.3748C22.2702 21.6256 22.7938 21.8823 23.3319 22.101C23.4019 22.1594 23.5288 22.1856 23.5652 22.0777C23.8846 21.6008 24.2492 21.1516 24.5379 20.6544C25.2598 19.1071 25.2992 17.3308 26.0517 15.7966C26.5738 14.7452 27.3525 13.8469 27.8979 12.81C28.1531 12.4221 28.5265 12.1289 28.7554 11.7206C29.3927 10.745 29.8929 9.68186 30.2867 8.58519C30.4354 8.1579 30.5375 7.69269 30.4179 7.24498C30.3304 6.80894 30.1233 6.41373 29.9542 6.00832C29.8663 5.66957 29.7297 5.34536 29.5488 5.04582C28.9552 4.05998 27.9883 3.37019 27.0069 2.80582C25.4829 1.9454 23.8044 1.39269 22.12 0.939152C20.3331 0.464762 18.5064 0.155271 16.6629 0.0145684C16.4591 0.00113682 16.2547 -0.00372857 16.0504 -1.49047e-05H16.0519ZM14.7554 0.883735C14.3748 1.20894 14.2261 1.71353 14.0729 2.17144C13.8279 2.99978 13.6894 3.86748 13.7711 4.73228C13.8644 6.28103 14.0583 7.82394 14.2523 9.36248C14.5148 11.3342 14.8167 13.3 15.2396 15.2454C15.2775 15.486 15.3329 15.7514 15.3125 15.9891C15.1448 15.7339 15.0471 15.4306 14.9363 15.1433C14.5717 14.0277 14.3063 12.8844 14.0554 11.7396C13.6068 9.66762 13.3326 7.5617 13.2358 5.44394C13.1994 4.21457 13.23 2.92686 13.7754 1.79665C13.9475 1.46707 14.1531 1.12582 14.4754 0.926027C14.5728 0.873306 14.6828 0.848572 14.7933 0.854568L14.7554 0.883735V0.883735ZM9.50251 2.58123C9.68918 2.58123 9.70522 2.81311 9.74751 2.94873C10.1354 4.11248 10.3629 5.3229 10.7377 6.48957C10.9915 7.43603 11.0848 8.41894 11.1869 9.39311C11.3283 10.9083 11.3444 12.4337 11.5456 13.9431C11.5836 14.2333 11.6652 14.5162 11.7192 14.8035C11.7338 14.9012 11.6331 14.875 11.5981 14.8239C11.3823 14.5891 11.3313 14.2537 11.2394 13.9606C11.0061 13.02 10.8865 12.0575 10.7523 11.0994C10.4986 9.18019 10.3338 7.24936 9.98084 5.34623C9.75043 4.45373 9.46168 3.57436 9.31001 2.66582C9.31876 2.59144 9.44563 2.59582 9.50251 2.58123V2.58123ZM6.6923 5.26019C7.02626 5.34186 7.22459 5.65103 7.43897 5.89311C8.0223 6.67332 8.22647 7.64894 8.45251 8.58082C8.86522 10.4256 9.10293 12.3039 9.5098 14.1517C9.70084 15.1229 9.93709 16.0854 10.2492 17.026C10.2696 17.1004 10.3002 17.22 10.3046 17.2739C9.9648 16.6469 9.73147 15.9673 9.48064 15.3008C8.60855 12.8246 8.28043 10.2025 7.5848 7.67665C7.39084 6.97957 7.13564 6.29123 6.71564 5.69623C6.64709 5.5679 6.59897 5.39873 6.66168 5.26311C6.67043 5.25728 6.68209 5.25873 6.69084 5.26019H6.6923ZM25.1344 24.5044C24.9361 24.5146 24.6823 24.6648 24.7319 24.8937C24.869 25.2116 25.219 25.3429 25.499 25.5004C26.1421 25.8154 26.8669 25.9233 27.4794 26.2966C27.6136 26.3841 27.6967 26.5839 27.5727 26.7152C27.3102 27.1031 26.8873 27.3569 26.5183 27.6398C25.9758 28.0277 25.3852 28.3835 24.9769 28.9216C24.8806 29.0777 24.9171 29.311 25.0965 29.3883C25.2554 29.5035 25.4508 29.4146 25.5894 29.3139C26.3448 28.8852 27.0404 28.3602 27.7448 27.8527C28.2115 27.5041 28.684 27.1571 29.0952 26.7444C29.2192 26.5475 29.0515 26.3448 28.9231 26.2033C28.525 25.7877 28.019 25.4931 27.5158 25.2262C26.849 24.8764 26.1316 24.6328 25.3896 24.5044C25.3046 24.4984 25.2194 24.4984 25.1344 24.5044V24.5044ZM8.69168 24.5437C7.92314 24.7391 7.23772 25.1562 6.54209 25.5252C5.9223 25.8796 5.29668 26.2485 4.7848 26.7516C4.61324 26.9481 4.52347 27.2027 4.53397 27.4633C4.62876 27.6208 4.82564 27.6675 4.97293 27.7637C6.21543 28.4083 7.50314 28.9625 8.80834 29.4671C9.00084 29.5283 9.1948 29.6319 9.40043 29.6231C9.63084 29.5939 9.85105 29.3256 9.71105 29.1039C9.49814 28.7496 9.09855 28.5775 8.76313 28.366C7.96543 27.9241 7.08022 27.6194 6.3773 27.0273C6.31022 26.8946 6.51438 26.8406 6.58438 26.7648C7.38501 26.1887 8.37668 25.9 9.08251 25.1941C9.2123 25.0629 9.32168 24.8164 9.15251 24.6721C9.02709 24.5656 8.85209 24.5452 8.69168 24.5437V24.5437ZM20.5261 25.7002C19.899 25.7396 19.3083 26.3287 19.3973 26.9777C19.444 27.3554 19.5271 27.7433 19.7298 28.07C19.9048 28.3325 20.2111 28.4871 20.5261 28.4885C20.9242 28.5337 21.3865 28.4025 21.5848 28.0248C21.7846 27.6791 21.894 27.2752 21.8838 26.8771C21.8283 26.2062 21.2042 25.6448 20.5275 25.7002H20.5261ZM13.9781 25.7148C13.3015 25.7556 12.8013 26.4512 12.8552 27.1046C12.8713 27.7521 13.3146 28.42 13.9708 28.5541C14.4842 28.6416 15.0063 28.2771 15.1419 27.7812C15.3242 27.2708 15.3344 26.6714 15.0777 26.1844C14.8488 25.8198 14.3806 25.7075 13.9781 25.7148V25.7148ZM14.1415 26.6671C14.4929 26.7604 14.5702 27.3525 14.2071 27.4808C14.0015 27.5304 13.8586 27.3058 13.8658 27.125C13.8542 26.9398 13.9388 26.7064 14.1415 26.6671ZM20.6121 26.8756C20.7536 26.8756 20.9417 26.9791 20.8892 27.1483C20.8702 27.3977 20.5756 27.6339 20.3394 27.4779C20.1469 27.3758 20.0886 27.0462 20.3102 26.9412C20.4035 26.8938 20.5075 26.8712 20.6121 26.8756ZM15.4817 31.2171C14.6752 31.2914 13.9592 31.7056 13.2329 32.0323C12.7896 32.2598 12.2675 32.4873 11.7673 32.305C11.2175 32.13 10.7363 31.7946 10.2229 31.5466C10.1136 31.5277 10.134 31.6589 10.1544 31.7246C10.2725 32.4975 10.3425 33.3316 10.8165 33.985C11.3094 34.6223 12.1319 34.8862 12.9063 34.9577C14.0686 35.0627 15.3008 34.7856 16.2181 34.0404C16.6688 33.6583 17.0508 33.1202 17.0713 32.5106C17.0625 32.0381 16.7154 31.6414 16.3071 31.4402C16.0576 31.2915 15.7721 31.2143 15.4817 31.2171V31.2171ZM19.2442 31.2287C18.6667 31.3046 18.0556 31.6108 17.8267 32.1766C17.6386 32.6987 17.8763 33.2675 18.2233 33.6641C18.8446 34.4064 19.7838 34.8206 20.7288 34.9533C21.5702 35.0671 22.4583 34.9737 23.2283 34.6033C23.8671 34.2752 24.3469 33.6481 24.4679 32.9379C24.5613 32.5135 24.5861 32.0775 24.6488 31.6487C24.5525 31.535 24.4329 31.7041 24.3308 31.7246C23.8394 31.9316 23.3873 32.2598 22.8579 32.3589C22.3286 32.3939 21.8561 32.1081 21.3777 31.9316C20.7506 31.6721 20.1367 31.3439 19.46 31.2346C19.3887 31.2283 19.3171 31.2263 19.2456 31.2287H19.2442ZM15.0427 23.8044C14.9406 23.8044 14.8342 23.8248 14.7277 23.8481C14.5013 23.9038 14.2799 23.9779 14.0656 24.0698C13.8469 24.1587 13.6398 24.255 13.4721 24.3323C13.3674 24.3801 13.2614 24.4248 13.1542 24.4664C13.0626 24.4808 12.9689 24.4633 12.8888 24.4169C12.7983 24.3629 12.7138 24.2696 12.6831 24.045L12.2894 24.1004C12.3346 24.4183 12.4936 24.64 12.6831 24.7566C12.8727 24.8719 13.074 24.8879 13.2344 24.8544C13.3583 24.8281 13.4677 24.7698 13.6369 24.6925C13.8061 24.6152 14.0088 24.5204 14.2158 24.4358C14.4244 24.3512 14.6358 24.2754 14.8138 24.2346C14.9333 24.2001 15.0595 24.1956 15.1813 24.2214C15.3854 24.3089 15.4583 24.411 15.4948 24.4825C15.5313 24.5554 15.5386 24.5802 15.5386 24.5802L15.9221 24.4927C15.9221 24.4927 15.925 24.4577 15.8492 24.306C15.7372 24.1012 15.5564 23.9426 15.3388 23.8583C15.2447 23.819 15.1432 23.8005 15.0413 23.8044H15.0427ZM19.0444 29.5458C19.0158 29.5465 18.9877 29.5534 18.962 29.566C18.9364 29.5786 18.9137 29.5966 18.8956 29.6187C18.8956 29.6187 18.7177 29.8346 18.4786 30.0489C18.2379 30.2648 17.9244 30.4573 17.7596 30.4616C17.5963 30.466 17.3017 30.2896 17.0742 30.0825C16.8481 29.8783 16.6848 29.6683 16.6848 29.6683C16.6695 29.6459 16.6498 29.6269 16.6269 29.6124C16.604 29.598 16.5783 29.5883 16.5515 29.5842C16.5247 29.58 16.4974 29.5814 16.4712 29.5882C16.4449 29.595 16.4204 29.6071 16.399 29.6238C16.3776 29.6405 16.3599 29.6613 16.3469 29.6851C16.3339 29.7089 16.326 29.7351 16.3235 29.7621C16.321 29.7891 16.3241 29.8163 16.3326 29.8421C16.3411 29.8678 16.3547 29.8916 16.3727 29.9119C16.3727 29.9119 16.5536 30.1452 16.8088 30.3771C17.064 30.6104 17.3877 30.8685 17.7713 30.8583C18.149 30.8466 18.4771 30.5812 18.7425 30.345C19.0079 30.1073 19.2019 29.871 19.2019 29.871C19.2263 29.8417 19.2417 29.806 19.2464 29.7682C19.251 29.7303 19.2446 29.6919 19.228 29.6576C19.2114 29.6233 19.1852 29.5945 19.1527 29.5747C19.1201 29.5549 19.0825 29.5448 19.0444 29.5458V29.5458ZM16.0519 0.00144343C14.9042 0.0451934 13.8425 0.53811 12.8115 0.998943C11.9346 1.41379 11.0255 1.75666 10.0931 2.02415C9.16709 2.28082 8.1973 2.5404 7.44772 3.17332C7.12397 3.43582 6.92855 3.81498 6.67626 4.14019C6.22564 4.84748 6.02293 5.69478 6.0098 6.52748C6.0623 7.41707 6.3248 8.27748 6.55814 9.13207C7.0948 10.9739 7.73501 12.7823 8.30376 14.6139C8.83751 16.3071 9.32897 18.0323 10.1908 19.5971C10.4781 20.1702 10.7013 20.7739 10.9711 21.3544C11.0104 21.4521 11.0469 21.5848 11.1781 21.5731C11.3765 21.5541 11.5325 21.4039 11.7148 21.3325C12.9223 20.7287 14.2523 20.3977 15.5867 20.2402C16.6192 20.1323 17.6721 20.1264 18.6944 20.3204C19.7444 20.5581 20.7608 20.9402 21.7452 21.3748C22.2702 21.6256 22.7938 21.8823 23.3319 22.101C23.4019 22.1594 23.5288 22.1856 23.5652 22.0777C23.8846 21.6008 24.2492 21.1516 24.5379 20.6558C25.2598 19.1071 25.2992 17.3308 26.0517 15.7966C26.5738 14.7452 27.3525 13.8483 27.8979 12.8114C28.1531 12.4235 28.5265 12.1289 28.7554 11.7221C29.3927 10.745 29.8929 9.6804 30.2867 8.58519C30.4354 8.1579 30.5375 7.69269 30.4179 7.24498C30.3304 6.8104 30.1233 6.41373 29.9542 6.00832C29.8662 5.67007 29.7296 5.34636 29.5488 5.04728C28.9552 4.06144 27.9883 3.37019 27.0069 2.80728C25.4829 1.9454 23.8044 1.39269 22.12 0.939152C20.3331 0.464762 18.5064 0.155271 16.6629 0.0145684C16.4591 0.00113682 16.2547 -0.00372857 16.0504 -1.49047e-05L16.0519 0.00144343ZM14.7554 0.885193C14.3748 1.20894 14.2261 1.71353 14.0729 2.1729C13.8279 2.99978 13.6894 3.86894 13.7711 4.73228C13.8644 6.28103 14.0583 7.82394 14.2523 9.36248C14.5148 11.3342 14.8167 13.3014 15.2396 15.2454C15.2775 15.486 15.3329 15.7514 15.3125 15.9891C15.1448 15.7339 15.0471 15.4306 14.9363 15.1433C14.5717 14.0277 14.3063 12.8844 14.0554 11.7396C13.6068 9.6681 13.3327 7.56267 13.2358 5.4454C13.1994 4.21457 13.23 2.92686 13.7754 1.79665C13.9475 1.46853 14.1531 1.12582 14.4754 0.926027C14.5728 0.873306 14.6828 0.848572 14.7933 0.854568L14.7554 0.883735V0.885193ZM9.50251 2.58123C9.68918 2.58123 9.70522 2.81457 9.74751 2.94873C10.1354 4.11248 10.3629 5.3229 10.7377 6.49103C10.9915 7.43603 11.0848 8.41894 11.1869 9.39311C11.3283 10.9098 11.3444 12.4352 11.5456 13.9431C11.5836 14.2333 11.6652 14.5177 11.7192 14.8035C11.7338 14.9027 11.6331 14.8764 11.5981 14.8239C11.3823 14.5906 11.3313 14.2552 11.2394 13.9606C11.0061 13.02 10.8865 12.0589 10.7523 11.0994C10.4986 9.18165 10.3338 7.24936 9.98084 5.34623C9.75043 4.45373 9.46168 3.57436 9.31001 2.66582C9.31876 2.59144 9.44563 2.59582 9.50251 2.58123V2.58123ZM6.6923 5.26165C7.02626 5.34186 7.22459 5.65103 7.43897 5.89311C8.0223 6.67332 8.22647 7.64894 8.45251 8.58082C8.86522 10.4256 9.10293 12.3054 9.5098 14.1517C9.70084 15.1229 9.93709 16.0869 10.2492 17.026C10.2696 17.1004 10.3002 17.22 10.3046 17.2739C9.9648 16.6469 9.73147 15.9673 9.48064 15.3023C8.60855 12.8231 8.28043 10.2025 7.5848 7.67519C7.39084 6.97957 7.13564 6.28978 6.71564 5.69623C6.64709 5.56936 6.59897 5.39873 6.66168 5.26457C6.67043 5.25873 6.68209 5.26019 6.69084 5.26165H6.6923ZM25.1344 24.5044C24.9361 24.5146 24.6823 24.6648 24.7319 24.8952C24.869 25.2116 25.219 25.3429 25.499 25.5019C26.1421 25.8154 26.8669 25.9233 27.4794 26.2966C27.6136 26.3841 27.6967 26.5839 27.5727 26.7152C27.3102 27.1046 26.8873 27.3569 26.5183 27.6398C25.9758 28.0277 25.3852 28.3835 24.9769 28.9216C24.8806 29.0777 24.9171 29.311 25.0965 29.3883C25.2554 29.5035 25.4508 29.416 25.5894 29.3154C26.3448 28.8852 27.0404 28.3602 27.7448 27.8541C28.2115 27.5041 28.684 27.1571 29.0952 26.7444C29.2192 26.5475 29.0515 26.3448 28.9231 26.2048C28.525 25.7877 28.019 25.4931 27.5158 25.2248C26.8488 24.8759 26.1314 24.6334 25.3896 24.5058C25.3047 24.4994 25.2194 24.4989 25.1344 24.5044V24.5044ZM8.69022 24.5466C7.92168 24.7406 7.23626 25.1591 6.54064 25.5266C5.92084 25.881 5.29522 26.2514 4.78334 26.7546C4.61213 26.9506 4.52239 27.2047 4.53251 27.4648C4.6273 27.6237 4.82418 27.6689 4.97147 27.7652C6.21397 28.4098 7.50168 28.9654 8.80689 29.4685C8.99939 29.5298 9.19334 29.6333 9.39897 29.626C9.62939 29.5969 9.84959 29.3271 9.70959 29.1054C9.49668 28.751 9.09709 28.5789 8.76168 28.3675C7.96397 27.9256 7.07876 27.6208 6.37584 27.0287C6.30876 26.8975 6.51293 26.8421 6.58293 26.7662C7.38355 26.1916 8.37522 25.9029 9.08105 25.1956C9.21084 25.0644 9.32022 24.8194 9.15105 24.675C9.02564 24.5671 8.85064 24.5466 8.69022 24.5466ZM20.5246 25.7016C19.8975 25.7425 19.3069 26.3316 19.3958 26.9791C19.4425 27.3583 19.5256 27.7462 19.7283 28.0729C19.9033 28.3339 20.2096 28.4885 20.5246 28.4914C20.9227 28.5352 21.385 28.4039 21.5833 28.0262C21.7831 27.6821 21.8925 27.2766 21.8823 26.8785C21.8269 26.2077 21.2027 25.6477 20.5261 25.7016H20.5246ZM13.9767 25.7162C13.3 25.7571 12.7998 26.4527 12.8538 27.106C12.8698 27.7535 13.3131 28.4214 13.9694 28.5571C14.4827 28.6431 15.0048 28.28 15.1404 27.7841C15.3227 27.2737 15.3329 26.6729 15.0763 26.1858C14.8473 25.8227 14.3792 25.7089 13.9767 25.7162V25.7162ZM14.14 26.67C14.4915 26.7619 14.5688 27.3554 14.2056 27.4823C14 27.5319 13.8571 27.3073 13.8644 27.1264C13.8527 26.9412 13.9373 26.7079 14.14 26.67ZM20.6106 26.8771C20.7521 26.8771 20.9402 26.9821 20.8877 27.1498C20.8688 27.4006 20.5742 27.6354 20.3379 27.4808C20.1454 27.3773 20.0871 27.0477 20.3088 26.9427C20.4021 26.8953 20.506 26.8727 20.6106 26.8771V26.8771ZM15.4802 31.2185C14.6738 31.2944 13.9577 31.7085 13.2315 32.0352C12.7881 32.2612 12.2661 32.4887 11.7658 32.3064C11.2161 32.1329 10.7348 31.796 10.2215 31.5481C10.1121 31.5306 10.1325 31.6619 10.1529 31.726C10.2711 32.4989 10.3411 33.3331 10.815 33.9864C11.3079 34.6252 12.1304 34.8891 12.9048 34.9591C14.0671 35.0641 15.2994 34.7871 16.2167 34.0419C16.6673 33.6598 17.0494 33.1231 17.0698 32.5121C17.0611 32.0396 16.714 31.6429 16.3056 31.4416C16.0562 31.2929 15.7706 31.2157 15.4802 31.2185V31.2185ZM19.2427 31.2302C18.6652 31.306 18.0542 31.6123 17.8252 32.1781C17.6371 32.7016 17.8748 33.2689 18.2219 33.6671C18.8431 34.4079 19.7823 34.8221 20.7273 34.9548C21.5688 35.0685 22.4569 34.9766 23.2269 34.6048C23.8656 34.2766 24.3454 33.6496 24.4665 32.9394C24.5598 32.5164 24.5846 32.0789 24.6473 31.6502C24.5511 31.5379 24.4315 31.7071 24.3294 31.726C23.8379 31.9346 23.3858 32.2612 22.8565 32.3619C22.3271 32.3969 21.8546 32.111 21.3763 31.9331C20.7492 31.6735 20.1352 31.3469 19.4586 31.2375C19.3873 31.2312 19.3157 31.2292 19.2442 31.2316L19.2427 31.2302Z" fill="white"/>
</g>
<defs>
<clipPath id="clip0">
<rect width="35" height="35" fill="white"/>
</clipPath>
</defs>
</svg>
