<svg width="34" height="28" viewBox="0 0 34 28" fill="none" xmlns="http://www.w3.org/2000/svg">
<path fill-rule="evenodd" clip-rule="evenodd" d="M32.5 4.46408C32.5135 5.33138 32.3995 6.41873 32.299 7.21174C32.2671 7.47372 32.217 7.73339 32.149 7.98903C33.433 10.2537 34 12.9785 34 15.9548C34 19.4812 32.2195 22.386 29.446 24.3664C26.698 26.3282 22.99 27.3856 19 27.3856C15.01 27.3856 11.302 26.3282 8.554 24.3664C5.7805 22.386 4 19.4812 4 15.9548C4 12.9785 4.5655 10.2537 5.8525 7.98903C5.78448 7.73339 5.73437 7.47372 5.7025 7.21174C5.599 6.41873 5.485 5.33138 5.5 4.46408C5.515 3.48818 5.65 2.51228 5.7985 1.54352C5.8675 1.09487 5.9755 0.673357 6.487 0.407593C7.009 0.136113 7.558 0.236132 8.0995 0.383303C9.9265 0.876253 11.6395 1.56924 13.2505 2.39797C14.95 1.91359 16.867 1.6664 19 1.6664C21.133 1.6664 23.05 1.91359 24.748 2.3994C26.3816 1.54867 28.1092 0.872994 29.899 0.384731C30.4405 0.23756 30.991 0.136113 31.5115 0.407593C32.0215 0.673357 32.131 1.09487 32.2015 1.54352C32.3485 2.51228 32.485 3.48818 32.5 4.46408ZM31 15.9548C31 13.5444 30.418 10.2395 27.25 10.2395C25.822 10.2395 24.4705 10.5967 23.1205 10.9539C21.772 11.3111 20.425 11.6683 19 11.6683C17.575 11.6683 16.228 11.3111 14.8795 10.9539C13.5295 10.5967 12.1795 10.2395 10.75 10.2395C7.591 10.2395 7 13.5544 7 15.9548C7 18.4753 8.2405 20.5714 10.354 22.0803C12.49 23.6077 15.535 24.5279 19 24.5279C22.465 24.5279 25.5085 23.6063 27.646 22.0803C29.7595 20.57 31 18.4753 31 15.9548ZM16 16.6692C16 18.6411 14.992 20.2414 13.75 20.2414C12.508 20.2414 11.5 18.6411 11.5 16.6692C11.5 14.6974 12.508 13.0971 13.75 13.0971C14.992 13.0971 16 14.6974 16 16.6692ZM24.25 20.2414C25.492 20.2414 26.5 18.6411 26.5 16.6692C26.5 14.6974 25.492 13.0971 24.25 13.0971C23.008 13.0971 22 14.6974 22 16.6692C22 18.6411 23.008 20.2414 24.25 20.2414Z" fill="white"/>
</svg>
