<svg width="27" height="25" viewBox="0 0 27 25" fill="none" xmlns="http://www.w3.org/2000/svg">
<path d="M22.7385 21.2161H18.8521V15.4727C18.8521 14.1032 18.8229 12.3405 16.825 12.3405C14.7994 12.3405 14.4902 13.831 14.4902 15.3724V21.2161H10.6023V9.40625H14.3356V11.015H14.3867C14.9088 10.0883 16.1775 9.10787 18.0733 9.10787C22.0108 9.10787 22.74 11.5526 22.74 14.733V21.2161H22.7385ZM6.21271 7.79062C5.91602 7.79099 5.62217 7.73613 5.34801 7.62921C5.07385 7.52228 4.82477 7.36539 4.61504 7.16752C4.40532 6.96966 4.23908 6.73471 4.12585 6.47614C4.01262 6.21758 3.95463 5.94049 3.95521 5.66075C3.9555 5.23977 4.08818 4.82833 4.33648 4.47845C4.58477 4.12857 4.93753 3.85597 5.35015 3.69512C5.76276 3.53427 6.2167 3.4924 6.65455 3.57479C7.09241 3.65719 7.49452 3.86015 7.81003 4.15802C8.12555 4.45589 8.34029 4.83528 8.42711 5.24822C8.51394 5.66117 8.46894 6.08911 8.29781 6.47794C8.12668 6.86677 7.8371 7.19902 7.46569 7.43267C7.09429 7.66633 6.65774 7.7909 6.21125 7.79062H6.21271ZM8.16104 21.2161H4.26292V9.40625H8.1625V21.2161H8.16104ZM24.6854 0.125H2.31313C1.23979 0.125 0.375 0.9225 0.375 1.90837V23.0916C0.375 24.0775 1.24125 24.875 2.31167 24.875H24.6796C25.75 24.875 26.625 24.0775 26.625 23.0916V1.90837C26.625 0.9225 25.75 0.125 24.6796 0.125H24.684H24.6854Z" fill="white"/>
</svg>
