<svg width="31" height="30" viewBox="0 0 31 30" fill="none" xmlns="http://www.w3.org/2000/svg">
<path d="M15.5 0.916656C7.44273 0.916656 0.916689 7.4427 0.916689 15.5C0.915035 18.5614 1.87746 21.5457 3.66742 24.0293C5.45738 26.513 7.98398 28.3699 10.8888 29.3367C11.6179 29.4635 11.8906 29.026 11.8906 28.6425C11.8906 28.2969 11.8717 27.1492 11.8717 25.9271C8.20836 26.6023 7.26044 25.0346 6.96877 24.2135C6.80398 23.7935 6.09377 22.5 5.47398 22.1529C4.96356 21.8802 4.2344 21.205 5.45502 21.1875C6.60419 21.1685 7.42377 22.2448 7.69794 22.6823C9.01044 24.8873 11.1075 24.2675 11.9446 23.8854C12.0729 22.9375 12.455 22.3002 12.875 21.9356C9.63023 21.571 6.23961 20.3125 6.23961 14.7344C6.23961 13.1477 6.80398 11.8367 7.7344 10.8144C7.58857 10.4498 7.07815 8.95499 7.88023 6.94978C7.88023 6.94978 9.10086 6.5677 11.8906 8.44603C13.0778 8.11654 14.3044 7.9507 15.5365 7.95311C16.7761 7.95311 18.0157 8.11645 19.1823 8.44457C21.9707 6.54874 23.1927 6.95124 23.1927 6.95124C23.9948 8.95645 23.4844 10.4512 23.3386 10.8158C24.2675 11.8367 24.8334 13.1302 24.8334 14.7344C24.8334 20.3314 21.4252 21.571 18.1804 21.9356C18.7084 22.3906 19.1648 23.2656 19.1648 24.6335C19.1648 26.5833 19.1459 28.151 19.1459 28.6439C19.1459 29.026 19.42 29.481 20.1492 29.3352C23.044 28.3578 25.5595 26.4973 27.3416 24.0154C29.1236 21.5336 30.0825 18.5554 30.0834 15.5C30.0834 7.4427 23.5573 0.916656 15.5 0.916656Z" fill="#F0A500"/>
</svg>
